<svg width="192" height="192" viewBox="0 0 192 192" fill="none" xmlns="http://www.w3.org/2000/svg">
<rect width="192" height="192" fill="#4FB477"/>
<path d="M15.974 63.4315C16.8754 62.9095 17.9038 62.6425 18.9476 62.6593C19.7041 62.6425 20.4556 62.7862 21.1516 63.0807C21.8476 63.3753 22.472 63.814 22.9831 64.3674C23.258 64.6497 23.6111 64.8451 23.9979 64.9289C24.1755 64.9765 24.362 64.9823 24.5423 64.9457C24.7226 64.9092 24.8917 64.8313 25.0363 64.7183C25.394 64.4914 25.6545 64.1414 25.7679 63.7356C25.8042 63.5431 25.7932 63.3447 25.7357 63.1574C25.6781 62.97 25.5759 62.7991 25.4375 62.6593C24.6444 61.6786 23.6459 60.8802 22.5111 60.3196C21.3912 59.822 20.1746 59.5743 18.9476 59.5943C17.296 59.5492 15.6635 59.9538 14.2276 60.7641C12.9077 61.5709 11.8442 62.7306 11.1596 64.11C10.3689 65.5431 9.97021 67.1563 10.0033 68.7895C9.95901 70.4268 10.367 72.0451 11.1832 73.4689C11.9374 74.8283 13.0564 75.9541 14.4164 76.7212C15.8522 77.5343 17.4832 77.9467 19.1364 77.9146C21.3338 77.9882 23.4715 77.1975 25.0835 75.7151C25.2133 75.5923 25.3145 75.4428 25.3797 75.2771C25.4449 75.1114 25.4727 74.9335 25.4611 74.7559C25.3934 74.3429 25.1645 73.9731 24.8239 73.7264C24.6902 73.6082 24.5326 73.5201 24.3616 73.4675C24.1906 73.4152 24.0102 73.3996 23.8327 73.4223C23.4316 73.4664 23.0533 73.6295 22.7471 73.8901C22.2742 74.2795 21.729 74.5737 21.1423 74.7559C20.4851 74.9554 19.8 75.0503 19.1127 75.0367C18.035 75.0625 16.9717 74.7868 16.0448 74.2411C15.1774 73.7097 14.4687 72.9585 13.9916 72.0652C13.4794 71.0907 13.2199 70.0052 13.2364 68.9065C13.2048 67.7866 13.4563 66.6765 13.968 65.6776C14.4004 64.7504 15.0979 63.9694 15.974 63.4315Z" fill="white"/>
<path d="M45.4027 67.7366L44.7893 71.1995V76.2064C44.7827 76.4276 44.8217 76.6475 44.9034 76.853C44.9848 77.0588 45.1077 77.2461 45.2643 77.4035C45.4208 77.5607 45.608 77.6852 45.8141 77.769C46.0205 77.8529 46.2418 77.8944 46.4648 77.891C46.9155 77.891 47.3478 77.7136 47.6662 77.3976C47.985 77.0818 48.1639 76.6532 48.1639 76.2064V68.8129L45.4027 67.7366ZM46.9367 64.2504C46.1561 62.9108 45.0432 61.7913 43.7037 60.9981C42.2884 60.2068 40.6911 59.791 39.0662 59.791C37.4414 59.791 35.8442 60.2068 34.4289 60.9981C33.0478 61.7444 31.8852 62.8327 31.0542 64.1568C30.2364 65.5811 29.8206 67.1976 29.8506 68.8363C29.8179 70.4637 30.1993 72.0732 30.9598 73.5158C31.6547 74.8485 32.698 75.9717 33.9805 76.768C35.2881 77.5479 36.7852 77.9597 38.3111 77.9597C39.8371 77.9597 41.3341 77.5479 42.6416 76.768C43.9189 75.9657 44.961 74.8439 45.6624 73.5158C46.4227 72.0732 46.8042 70.4637 46.7716 68.8363H48.0696C48.1031 67.1941 47.6786 65.5747 46.8424 64.1568L46.9367 64.2504ZM44.0577 71.9481C43.5784 72.8536 42.8609 73.6139 41.9808 74.1476C41.0775 74.6876 40.0383 74.9633 38.9837 74.9431C37.9213 74.9653 36.8741 74.6896 35.9629 74.1476C35.0693 73.6159 34.3359 72.8562 33.8389 71.9481C33.3118 70.9869 33.0435 69.9069 33.0601 68.8129C33.0427 67.7112 33.3108 66.6236 33.8389 65.6542C34.3359 64.746 35.0693 63.9865 35.9629 63.4548C36.8673 62.9171 37.9056 62.6415 38.9602 62.6593C40.0148 62.6389 41.0537 62.9147 41.9573 63.4548C42.8371 63.9886 43.5549 64.7486 44.0339 65.6542C44.5539 66.6258 44.8139 67.7133 44.7893 68.8129C44.8214 69.9029 44.5694 70.9829 44.0577 71.9481Z" fill="white"/>
<path d="M55.6686 63.0571C55.0202 64.1222 54.6848 65.346 54.7011 66.5901H56.3767V62.1212C56.1064 62.4061 55.869 62.72 55.6686 63.0571ZM55.9757 60.2728C55.6641 59.9974 55.2601 59.8472 54.8428 59.8516C54.6237 59.8379 54.4044 59.868 54.1978 59.9404C53.9908 60.0128 53.8007 60.1258 53.639 60.2728C53.4814 60.4322 53.3595 60.6232 53.2824 60.833C53.205 61.0429 53.1738 61.2667 53.1907 61.4895V76.1129C53.1703 76.3395 53.1999 76.5677 53.2773 76.782C53.3547 76.996 53.4782 77.191 53.639 77.353C53.8027 77.4956 53.9936 77.6045 54.2003 77.6727C54.407 77.7412 54.6255 77.7676 54.8428 77.7509C55.0692 77.7682 55.2968 77.7398 55.5118 77.6676C55.7268 77.5951 55.9246 77.48 56.0935 77.3297C56.2394 77.164 56.35 76.9707 56.4191 76.7618C56.4879 76.5526 56.5137 76.3321 56.4948 76.1129V61.4895C56.5 61.2583 56.4567 61.0286 56.3672 60.8151C56.2778 60.6016 56.1442 60.4089 55.9757 60.2494V60.2728Z" fill="white"/>
<path d="M78.7258 61.0917C78.7315 61.2763 78.6965 61.46 78.6231 61.6298C78.5497 61.7996 78.4397 61.9513 78.3009 62.0744C77.9882 62.3453 77.5831 62.4876 77.168 62.4721H61.9225C61.295 62.4884 60.6703 62.5668 60.0583 62.7061C59.0624 62.8784 58.1417 63.343 57.415 64.0398C57.0864 64.368 56.829 64.7595 56.6584 65.19C56.4882 65.6205 56.4082 66.081 56.4239 66.5433V62.1212C56.964 61.4829 57.6205 60.9512 58.3589 60.5535C59.4486 59.9523 60.6755 59.6381 61.9225 59.641H77.1445C77.5593 59.6256 77.9647 59.7678 78.2771 60.0388C78.4248 60.1714 78.5411 60.3343 78.6185 60.5161C78.6962 60.698 78.7326 60.8944 78.7258 61.0917Z" fill="white"/>
<path d="M87.4338 63.4315C88.3353 62.9095 89.3636 62.6425 90.4074 62.6593C91.1639 62.6425 91.9155 62.7862 92.6115 63.0807C93.3076 63.3753 93.9319 63.814 94.4431 64.3674C94.7234 64.655 95.0858 64.8509 95.4814 64.9289C95.6551 64.9764 95.838 64.9821 96.0146 64.9455C96.1909 64.9088 96.356 64.831 96.4962 64.7183C96.8895 64.5092 97.1856 64.1569 97.322 63.7356C97.3585 63.5431 97.3476 63.3447 97.2899 63.1574C97.2323 62.97 97.13 62.7991 96.9918 62.6593C96.2018 61.6848 95.2125 60.8873 94.089 60.3196C92.9598 59.8244 91.7363 59.577 90.5017 59.5943C88.8505 59.5528 87.2191 59.9572 85.782 60.7641C84.449 61.5324 83.3548 62.6494 82.6195 63.993C81.8289 65.4261 81.4301 67.0393 81.4631 68.6725C81.4189 70.3098 81.8269 71.9279 82.643 73.3521C83.4041 74.7064 84.5215 75.8304 85.8763 76.6043C87.3119 77.4172 88.9431 77.8296 90.5963 77.7974C92.7936 77.8713 94.9312 77.0807 96.5435 75.5982C96.6874 75.47 96.7986 75.31 96.8685 75.131C96.9382 74.9522 96.9643 74.7595 96.9445 74.5688C96.876 74.1618 96.6573 73.7949 96.331 73.5391C96.1949 73.4249 96.0369 73.339 95.8666 73.2867C95.6964 73.2344 95.5172 73.2168 95.3397 73.235C94.9301 73.2731 94.5422 73.4365 94.2306 73.7031C93.7674 74.1621 93.2127 74.5208 92.6021 74.7558C91.945 74.9553 91.2599 75.0503 90.5725 75.0366C89.5253 75.0483 88.4959 74.7669 87.6026 74.2246C86.7094 73.6824 85.9881 72.9016 85.5223 71.9717C85.01 70.9971 84.7506 69.9116 84.7672 68.8129C84.7428 67.6909 85.0023 66.5808 85.5223 65.584C85.9442 64.7036 86.6064 63.9579 87.4338 63.4315Z" fill="white"/>
<path d="M118.349 64.0866C117.589 62.7519 116.481 61.6447 115.14 60.8811C113.697 60.089 112.069 59.6857 110.42 59.7113C108.77 59.6779 107.14 60.0817 105.7 60.8811C104.348 61.6376 103.23 62.746 102.467 64.0866C101.668 65.5174 101.261 67.1308 101.287 68.7661C101.261 70.4014 101.668 72.0149 102.467 73.4456C103.23 74.7862 104.348 75.8947 105.7 76.651C107.14 77.4504 108.77 77.8543 110.42 77.821C112.069 77.8466 113.697 77.443 115.14 76.651C116.486 75.8941 117.596 74.7854 118.349 73.4456C119.13 72.0087 119.528 70.3981 119.506 68.7661C119.539 67.1329 119.14 65.5196 118.349 64.0866ZM115.541 71.995C115.069 72.886 114.359 73.6306 113.488 74.1476C112.567 74.6879 111.513 74.9633 110.444 74.9431C109.373 74.9698 108.317 74.6939 107.399 74.1476C106.521 73.6321 105.803 72.8874 105.322 71.995C104.795 71.0179 104.534 69.9208 104.567 68.8129C104.536 67.7052 104.797 66.6086 105.322 65.6308C105.795 64.7267 106.515 63.9727 107.399 63.4549C108.317 62.9086 109.373 62.6327 110.444 62.6594C111.513 62.639 112.567 62.9145 113.488 63.4549C114.365 63.9741 115.077 64.7284 115.541 65.6308C116.047 66.6166 116.31 67.7069 116.31 68.8129C116.31 69.9189 116.047 71.0091 115.541 71.995Z" fill="white"/>
<path d="M101.546 119.211C100.786 117.877 99.6776 116.769 98.3369 116.006C96.8938 115.214 95.2664 114.81 93.6169 114.836C91.9666 114.802 90.3374 115.206 88.8969 116.006C87.5536 116.766 86.4439 117.874 85.6874 119.211C84.9246 120.655 84.5261 122.261 84.5261 123.891C84.5261 125.521 84.9246 127.126 85.6874 128.57C86.4505 129.911 87.5685 131.019 88.9207 131.776C90.3609 132.575 91.9904 132.979 93.6407 132.945C95.2899 132.971 96.9173 132.568 98.3607 131.776C99.7063 131.019 100.817 129.91 101.57 128.57C102.351 127.133 102.749 125.523 102.727 123.891C102.752 122.255 102.345 120.642 101.546 119.211ZM98.7382 127.026C98.2663 127.917 97.556 128.662 96.6848 129.178C95.7643 129.719 94.7102 129.994 93.6407 129.974C92.5703 130.001 91.5142 129.725 90.5963 129.178C89.7182 128.663 88.9998 127.919 88.5194 127.026C88.0229 126.037 87.7643 124.948 87.7643 123.844C87.7643 122.739 88.0229 121.65 88.5194 120.662C88.9921 119.758 89.7119 119.004 90.5963 118.486C91.5142 117.94 92.5703 117.664 93.6407 117.69C94.7102 117.67 95.7643 117.945 96.6848 118.486C97.5623 119.005 98.2741 119.759 98.7382 120.662C99.2439 121.647 99.5073 122.738 99.5073 123.844C99.5073 124.95 99.2439 126.04 98.7382 127.026Z" fill="white"/>
<path d="M151.012 119.211C150.251 117.877 149.143 116.769 147.802 116.006C146.359 115.214 144.731 114.81 143.082 114.836C141.432 114.802 139.802 115.206 138.362 116.006C136.992 116.755 135.858 117.864 135.082 119.211C134.319 120.655 133.92 122.261 133.92 123.891C133.92 125.521 134.319 127.126 135.082 128.57C135.845 129.911 136.963 131.019 138.315 131.776C139.755 132.575 141.385 132.979 143.035 132.945C144.684 132.971 146.311 132.568 147.755 131.776C149.127 131.029 150.262 129.919 151.035 128.57C151.816 127.133 152.214 125.523 152.192 123.891C152.217 122.255 151.811 120.642 151.012 119.211ZM148.203 127.119C147.731 128.01 147.021 128.755 146.15 129.272C145.23 129.813 144.175 130.088 143.106 130.067C142.035 130.094 140.979 129.818 140.061 129.272C139.183 128.757 138.465 128.012 137.984 127.119C137.488 126.131 137.229 125.042 137.229 123.937C137.229 122.833 137.488 121.744 137.984 120.755C138.457 119.851 139.177 119.097 140.061 118.579C140.979 118.033 142.035 117.757 143.106 117.784C144.175 117.763 145.23 118.039 146.15 118.579C147.027 119.099 147.739 119.853 148.203 120.755C148.709 121.741 148.973 122.831 148.973 123.937C148.973 125.043 148.709 126.134 148.203 127.119Z" fill="white"/>
<path d="M149.242 62.9167C148.717 61.9141 147.893 61.0969 146.882 60.577C145.867 60.011 144.718 59.728 143.554 59.758C142.242 59.7582 140.951 60.0883 139.802 60.7173C139.041 61.1318 138.368 61.6879 137.819 62.3552C137.588 62.6326 137.383 62.9302 137.206 63.2443C136.574 64.3993 136.257 65.6976 136.285 67.0113H139.023V66.8709C139.01 65.8067 139.407 64.7777 140.132 63.993C140.485 63.6039 140.919 63.2956 141.404 63.0895C141.889 62.8835 142.413 62.7846 142.941 62.7997C143.434 62.7825 143.926 62.8626 144.387 63.0353C144.849 63.208 145.272 63.4699 145.631 63.8058C145.998 64.2234 146.277 64.7099 146.452 65.2364C146.626 65.7629 146.692 66.3187 146.646 66.8709V76.2298C146.646 76.6765 146.825 77.1051 147.143 77.4212C147.462 77.7369 147.894 77.9146 148.345 77.9146C148.572 77.9208 148.799 77.8805 149.01 77.796C149.221 77.7113 149.413 77.5846 149.572 77.4232C149.725 77.2649 149.843 77.0773 149.92 76.8721C149.997 76.6672 150.031 76.4486 150.02 76.2298V66.8709C150.089 65.5096 149.822 64.1523 149.242 62.9167ZM138.244 62.9167C138.125 62.6826 137.99 62.456 137.843 62.2382C137.374 61.518 136.734 60.9233 135.979 60.5068C134.957 59.9389 133.798 59.6559 132.627 59.6879C131.364 59.6838 130.127 60.0412 129.064 60.7173C128.643 60.9748 128.255 61.2811 127.907 61.6298C127.412 62.0893 126.998 62.6269 126.68 63.2209C126.093 64.3896 125.802 65.6825 125.831 66.9879H128.002C127.978 66.4353 128.066 65.8835 128.26 65.3651C128.455 64.8467 128.752 64.3722 129.135 63.9696C129.853 63.2375 130.828 62.8092 131.858 62.7743C132.887 62.7394 133.89 63.1007 134.657 63.7824C135.024 64.2 135.303 64.6865 135.478 65.213C135.652 65.7394 135.718 66.2953 135.672 66.8475V76.2065C135.665 76.4276 135.704 76.6475 135.786 76.853C135.867 77.0588 135.99 77.2461 136.147 77.4035C136.303 77.5607 136.491 77.6852 136.697 77.769C136.903 77.8529 137.124 77.8944 137.347 77.891C137.576 77.9021 137.804 77.8637 138.015 77.779C138.227 77.694 138.418 77.5647 138.575 77.3999C138.731 77.2433 138.854 77.0568 138.935 76.8516C139.016 76.6464 139.054 76.4267 139.046 76.2065V66.8475C139.063 65.4856 138.756 64.1391 138.15 62.9167H138.244ZM127.553 60.343C127.391 60.1881 127.198 60.0669 126.987 59.9866C126.777 59.9062 126.552 59.8683 126.326 59.875C126.104 59.8674 125.883 59.905 125.675 59.9855C125.469 60.066 125.28 60.1876 125.123 60.343C124.958 60.4947 124.829 60.6799 124.743 60.8858C124.658 61.0918 124.618 61.3137 124.627 61.5362V76.1129C124.627 76.5597 124.806 76.9883 125.125 77.3041C125.443 77.6201 125.876 77.7975 126.326 77.7975C126.551 77.8077 126.775 77.771 126.985 77.6897C127.195 77.6082 127.385 77.4843 127.543 77.3254C127.701 77.1665 127.823 76.9764 127.902 76.7675C127.981 76.5586 128.015 76.3355 128.002 76.1129V61.5129C128.002 61.2906 127.953 61.0711 127.859 60.8691C127.766 60.6672 127.629 60.4878 127.459 60.343H127.553Z" fill="white"/>
<path d="M180.134 62.9167C179.609 61.9141 178.785 61.0969 177.774 60.5769C176.759 60.011 175.609 59.728 174.446 59.758C173.142 59.7622 171.859 60.0921 170.717 60.7173C169.956 61.1318 169.283 61.6879 168.735 62.3552C168.512 62.5729 168.307 62.8076 168.121 63.0571C167.49 64.212 167.172 65.5104 167.201 66.8241H169.939V66.6837C169.926 65.6195 170.323 64.5905 171.048 63.8058C171.404 63.4149 171.842 63.1056 172.331 62.8996C172.82 62.6935 173.348 62.5955 173.88 62.6125C174.369 62.5972 174.857 62.6782 175.315 62.8508C175.772 63.0235 176.191 63.2845 176.546 63.6186C176.923 64.0446 177.207 64.5427 177.382 65.082C177.556 65.6212 177.617 66.1903 177.561 66.7539V76.1129C177.549 76.3337 177.585 76.5546 177.666 76.7603C177.748 76.9661 177.873 77.1523 178.033 77.306C178.186 77.4692 178.373 77.5976 178.581 77.6823C178.788 77.7673 179.012 77.8065 179.237 77.7974C179.462 77.8077 179.686 77.771 179.896 77.6897C180.105 77.6084 180.295 77.4842 180.453 77.3253C180.611 77.1665 180.734 76.9763 180.813 76.7674C180.892 76.5585 180.926 76.3357 180.912 76.1129V66.7539C180.962 65.4318 180.695 64.1168 180.134 62.9167ZM169.136 62.9167C169.017 62.6826 168.882 62.456 168.735 62.2381C168.266 61.518 167.626 60.9233 166.871 60.5067C165.829 59.9415 164.66 59.6453 163.472 59.6453C162.285 59.6453 161.116 59.9415 160.074 60.5067C159.645 60.7637 159.25 61.07 158.894 61.4192C158.405 61.8785 157.998 62.4164 157.69 63.0103C157.085 64.1733 156.784 65.4688 156.817 66.7773H158.894C158.87 66.2247 158.958 65.6729 159.152 65.1545C159.347 64.6361 159.644 64.1616 160.027 63.759C160.745 63.0269 161.72 62.5986 162.75 62.5637C163.779 62.5288 164.782 62.89 165.549 63.5718C165.916 63.9894 166.196 64.4759 166.37 65.0023C166.544 65.5288 166.61 66.0846 166.564 66.6369V75.9958C166.563 76.3298 166.662 76.6563 166.849 76.934C167.035 77.2117 167.301 77.4282 167.612 77.5561C167.923 77.684 168.266 77.7173 168.595 77.6522C168.926 77.5868 169.229 77.4257 169.466 77.1892C169.627 77.0355 169.752 76.8493 169.833 76.6432C169.915 76.4375 169.951 76.2166 169.939 75.9958V66.6369C169.962 65.3522 169.688 64.0793 169.136 62.9167ZM158.445 60.3429C158.284 60.1858 158.092 60.0632 157.881 59.9827C157.67 59.9022 157.444 59.8656 157.218 59.875C156.771 59.8702 156.339 60.038 156.015 60.3429C155.854 60.4968 155.729 60.6829 155.648 60.8887C155.566 61.0946 155.531 61.3154 155.543 61.5362V76.1129C155.531 76.3337 155.566 76.5546 155.648 76.7603C155.729 76.9661 155.854 77.1523 156.015 77.306C156.17 77.4657 156.358 77.5917 156.565 77.6763C156.772 77.7608 156.994 77.802 157.218 77.7974C157.446 77.8085 157.674 77.7701 157.886 77.6852C158.098 77.6005 158.289 77.4711 158.445 77.306C158.598 77.1477 158.716 76.9604 158.793 76.7552C158.87 76.55 158.905 76.3315 158.894 76.1129V61.5128C158.906 61.2976 158.872 61.0823 158.795 60.8808C158.717 60.6794 158.598 60.4961 158.445 60.3429Z" fill="white"/>
<path d="M152.852 111.256H152.711H80.9675C80.0321 110.993 79.1902 110.474 78.5389 109.757C77.8878 109.042 77.4535 108.158 77.2861 107.208L67.8227 65.3968L65.7223 56.0378C65.5199 55.0639 65.0956 54.1487 64.4822 53.362C63.8687 52.5754 63.0821 51.938 62.1822 51.4987C61.3799 50.9606 54.4887 47.217 50.3825 44.9942C50.0132 44.7949 49.7335 44.4654 49.5979 44.0711C49.4623 43.6767 49.4812 43.2462 49.6509 42.865C49.8607 42.4838 50.213 42.1992 50.6322 42.0724C51.0513 41.9455 51.5039 41.9865 51.8926 42.1865C53.0255 42.7948 62.843 48.0827 64.0467 48.8782C65.302 49.5489 66.3957 50.4822 67.2514 51.6134C68.1071 52.7446 68.7048 54.0467 69.0026 55.4295L71.1265 64.7885C74.3833 79.1313 80.2359 104.939 80.5665 106.46C80.6129 106.786 80.7382 107.097 80.9311 107.366C81.124 107.634 81.3794 107.853 81.6756 108.004H152.711C154.41 108.004 155.189 107.77 155.566 106.436C156.322 103.839 161.042 82.2431 161.042 82.0325C161.143 81.6099 161.407 81.2435 161.777 81.0116C162.148 80.7797 162.596 80.7012 163.024 80.7925C163.448 80.8874 163.818 81.1449 164.052 81.5084C164.286 81.8722 164.366 82.3127 164.275 82.7345C164.086 83.6235 159.413 104.635 158.658 107.278C158.319 108.514 157.55 109.59 156.488 110.318C155.425 111.046 154.138 111.378 152.852 111.256Z" fill="white"/>
<path d="M77.3667 131.526C80.2334 136.263 89.98 144.032 106.033 137.211C97.9112 145.263 80.8067 155.4 77.3667 131.526Z" stroke="white" stroke-width="3" stroke-linejoin="round"/>
</svg>
