<svg width="172" height="108" viewBox="0 0 172 108" fill="none" xmlns="http://www.w3.org/2000/svg">
<path d="M5.97399 21.4315C6.87536 20.9095 7.9038 20.6425 8.94755 20.6593C9.70413 20.6425 10.4556 20.7862 11.1516 21.0807C11.8476 21.3753 12.472 21.814 12.9831 22.3674C13.258 22.6497 13.6111 22.8451 13.9979 22.9289C14.1755 22.9765 14.362 22.9823 14.5423 22.9457C14.7226 22.9092 14.8917 22.8313 15.0363 22.7183C15.394 22.4914 15.6545 22.1414 15.7679 21.7356C15.8042 21.5431 15.7932 21.3447 15.7357 21.1574C15.6781 20.97 15.5759 20.7991 15.4375 20.6593C14.6444 19.6786 13.6459 18.8802 12.5111 18.3196C11.3912 17.822 10.1746 17.5743 8.94755 17.5943C7.29595 17.5492 5.6635 17.9538 4.22759 18.7641C2.90766 19.5709 1.84423 20.7306 1.15964 22.11C0.36888 23.5431 -0.0297919 25.1563 0.00325155 26.7895C-0.0409942 28.4268 0.367039 30.0451 1.18324 31.4689C1.93735 32.8283 3.05644 33.9541 4.41639 34.7212C5.85219 35.5343 7.4832 35.9467 9.13635 35.9146C11.3338 35.9882 13.4715 35.1975 15.0835 33.7151C15.2133 33.5923 15.3145 33.4428 15.3797 33.2771C15.4449 33.1114 15.4727 32.9335 15.4611 32.7559C15.3934 32.3429 15.1645 31.9731 14.8239 31.7264C14.6902 31.6082 14.5326 31.5201 14.3616 31.4675C14.1906 31.4152 14.0102 31.3996 13.8327 31.4223C13.4316 31.4664 13.0533 31.6295 12.7471 31.8901C12.2742 32.2795 11.729 32.5737 11.1423 32.7559C10.4851 32.9554 9.79999 33.0503 9.11273 33.0367C8.03498 33.0625 6.97168 32.7868 6.04477 32.2411C5.17743 31.7097 4.4687 30.9585 3.9916 30.0652C3.47942 29.0907 3.2199 28.0052 3.23641 26.9065C3.20476 25.7866 3.45628 24.6765 3.96801 23.6776C4.40045 22.7504 5.09794 21.9694 5.97399 21.4315Z" fill="black"/>
<path d="M35.4028 25.7366L34.7893 29.1995V34.2064C34.7827 34.4276 34.8217 34.6475 34.9034 34.853C34.9848 35.0588 35.1078 35.2461 35.2643 35.4035C35.4208 35.5607 35.608 35.6852 35.8142 35.769C36.0206 35.8529 36.2419 35.8944 36.4649 35.891C36.9155 35.891 37.3478 35.7136 37.6663 35.3976C37.9851 35.0818 38.164 34.6532 38.164 34.2064V26.8129L35.4028 25.7366ZM36.9367 22.2504C36.1561 20.9108 35.0433 19.7913 33.7037 18.9981C32.2884 18.2068 30.6911 17.791 29.0663 17.791C27.4415 17.791 25.8442 18.2068 24.429 18.9981C23.0479 19.7444 21.8852 20.8327 21.0542 22.1568C20.2364 23.5811 19.8207 25.1976 19.8506 26.8363C19.8179 28.4637 20.1994 30.0732 20.9598 31.5158C21.6548 32.8485 22.6981 33.9717 23.9806 34.768C25.2882 35.5479 26.7852 35.9597 28.3111 35.9597C29.8372 35.9597 31.3341 35.5479 32.6416 34.768C33.919 33.9657 34.961 32.8439 35.6625 31.5158C36.4227 30.0732 36.8043 28.4637 36.7716 26.8363H38.0696C38.1032 25.1941 37.6786 23.5747 36.8424 22.1568L36.9367 22.2504ZM34.0577 29.9481C33.5784 30.8536 32.8609 31.6139 31.9808 32.1476C31.0776 32.6876 30.0384 32.9633 28.9837 32.9431C27.9213 32.9653 26.8742 32.6896 25.963 32.1476C25.0694 31.6159 24.3359 30.8562 23.839 29.9481C23.3118 28.9869 23.0436 27.9069 23.0602 26.8129C23.0428 25.7112 23.3109 24.6236 23.839 23.6542C24.3359 22.746 25.0694 21.9865 25.963 21.4548C26.8674 20.9171 27.9057 20.6415 28.9602 20.6593C30.0149 20.6389 31.0538 20.9147 31.9573 21.4548C32.8371 21.9886 33.5549 22.7486 34.034 23.6542C34.554 24.6258 34.814 25.7133 34.7893 26.8129C34.8214 27.9029 34.5694 28.9829 34.0577 29.9481Z" fill="black"/>
<path d="M45.6686 21.0571C45.0201 22.1222 44.6847 23.346 44.7011 24.5901H46.3766V20.1212C46.1063 20.4061 45.869 20.72 45.6686 21.0571ZM45.9756 18.2728C45.664 17.9974 45.2601 17.8472 44.8427 17.8516C44.6237 17.8379 44.4044 17.868 44.1977 17.9404C43.9907 18.0128 43.8007 18.1258 43.639 18.2728C43.4813 18.4322 43.3595 18.6232 43.2824 18.833C43.205 19.0429 43.1737 19.2667 43.1906 19.4895V34.1129C43.1703 34.3395 43.1998 34.5677 43.2772 34.782C43.3546 34.996 43.4782 35.191 43.639 35.353C43.8027 35.4956 43.9936 35.6045 44.2003 35.6727C44.407 35.7412 44.6254 35.7676 44.8427 35.7509C45.0692 35.7682 45.2968 35.7398 45.5118 35.6676C45.7268 35.5951 45.9246 35.48 46.0934 35.3297C46.2393 35.164 46.35 34.9707 46.4191 34.7618C46.4879 34.5526 46.5137 34.3321 46.4948 34.1129V19.4895C46.4999 19.2583 46.4566 19.0286 46.3672 18.8151C46.2777 18.6016 46.1442 18.4089 45.9756 18.2494V18.2728Z" fill="black"/>
<path d="M68.7258 19.0917C68.7315 19.2763 68.6965 19.46 68.6231 19.6298C68.5497 19.7996 68.4397 19.9513 68.3009 20.0744C67.9882 20.3453 67.5831 20.4876 67.168 20.4721H51.9225C51.295 20.4884 50.6703 20.5668 50.0583 20.7061C49.0624 20.8784 48.1417 21.343 47.415 22.0398C47.0864 22.368 46.829 22.7595 46.6584 23.19C46.4882 23.6205 46.4082 24.081 46.4239 24.5433V20.1212C46.964 19.4829 47.6205 18.9512 48.3589 18.5535C49.4486 17.9523 50.6755 17.6381 51.9225 17.641H67.1445C67.5593 17.6256 67.9647 17.7678 68.2771 18.0388C68.4248 18.1714 68.5411 18.3343 68.6185 18.5161C68.6962 18.698 68.7326 18.8944 68.7258 19.0917Z" fill="black"/>
<path d="M77.4338 21.4315C78.3354 20.9095 79.3637 20.6425 80.4074 20.6593C81.1639 20.6425 81.9156 20.7862 82.6116 21.0807C83.3076 21.3753 83.932 21.814 84.4431 22.3674C84.7235 22.655 85.0858 22.8509 85.4814 22.9289C85.6551 22.9764 85.838 22.9821 86.0146 22.9455C86.1909 22.9088 86.356 22.831 86.4962 22.7183C86.8895 22.5092 87.1857 22.1569 87.3221 21.7356C87.3585 21.5431 87.3476 21.3447 87.29 21.1574C87.2324 20.97 87.13 20.7991 86.9919 20.6593C86.2018 19.6848 85.2125 18.8873 84.0891 18.3196C82.9599 17.8244 81.7364 17.577 80.5017 17.5943C78.8505 17.5528 77.2191 17.9572 75.7821 18.7641C74.4491 19.5324 73.3548 20.6494 72.6195 21.993C71.8289 23.4261 71.4302 25.0393 71.4631 26.6725C71.419 28.3098 71.8269 29.9279 72.6431 31.3521C73.4042 32.7064 74.5216 33.8304 75.8764 34.6043C77.312 35.4172 78.9431 35.8296 80.5963 35.7974C82.7936 35.8713 84.9313 35.0807 86.5435 33.5982C86.6874 33.47 86.7987 33.31 86.8686 33.131C86.9383 32.9522 86.9643 32.7595 86.9446 32.5688C86.8761 32.1618 86.6573 31.7949 86.3311 31.5391C86.1949 31.4249 86.037 31.339 85.8667 31.2867C85.6964 31.2344 85.5173 31.2168 85.3398 31.235C84.9302 31.2731 84.5423 31.4365 84.2307 31.7031C83.7674 32.1621 83.2127 32.5208 82.6021 32.7558C81.9451 32.9553 81.26 33.0503 80.5725 33.0366C79.5254 33.0483 78.4959 32.7669 77.6027 32.2246C76.7094 31.6824 75.9882 30.9016 75.5223 29.9717C75.0101 28.9971 74.7506 27.9116 74.7673 26.8129C74.7429 25.6909 75.0023 24.5808 75.5223 23.584C75.9443 22.7036 76.6065 21.9579 77.4338 21.4315Z" fill="black"/>
<path d="M108.349 22.0866C107.589 20.7519 106.481 19.6447 105.14 18.8811C103.697 18.089 102.069 17.6857 100.42 17.7113C98.7698 17.6779 97.1404 18.0817 95.6999 18.8811C94.348 19.6376 93.23 20.746 92.4669 22.0866C91.668 23.5174 91.2612 25.1308 91.287 26.7661C91.2612 28.4014 91.668 30.0149 92.4669 31.4456C93.23 32.7862 94.348 33.8947 95.6999 34.651C97.1404 35.4504 98.7698 35.8543 100.42 35.821C102.069 35.8466 103.697 35.443 105.14 34.651C106.486 33.8941 107.596 32.7854 108.349 31.4456C109.13 30.0087 109.528 28.3981 109.506 26.7661C109.539 25.1329 109.14 23.5196 108.349 22.0866ZM105.541 29.995C105.069 30.886 104.359 31.6306 103.488 32.1476C102.567 32.6879 101.513 32.9633 100.444 32.9431C99.3733 32.9698 98.3172 32.6939 97.3993 32.1476C96.5212 31.6321 95.8028 30.8874 95.3224 29.995C94.7946 29.0179 94.5341 27.9208 94.5673 26.8129C94.5364 25.7052 94.7966 24.6086 95.3224 23.6308C95.7951 22.7267 96.5149 21.9727 97.3993 21.4549C98.3172 20.9086 99.3733 20.6327 100.444 20.6594C101.513 20.639 102.567 20.9145 103.488 21.4549C104.365 21.9741 105.077 22.7284 105.541 23.6308C106.047 24.6166 106.31 25.7069 106.31 26.8129C106.31 27.9189 106.047 29.0091 105.541 29.995Z" fill="black"/>
<path d="M91.5464 77.2112C90.7862 75.8766 89.6777 74.7693 88.3369 74.0056C86.8938 73.2135 85.2664 72.8102 83.617 72.8358C81.9666 72.8023 80.3375 73.2061 78.897 74.0056C77.5537 74.7656 76.444 75.8737 75.6875 77.2112C74.9247 78.655 74.5262 80.2608 74.5262 81.8907C74.5262 83.5207 74.9247 85.1262 75.6875 86.5703C76.4506 87.9106 77.5686 89.019 78.9208 89.7756C80.361 90.5751 81.9904 90.9789 83.6408 90.9454C85.2899 90.971 86.9174 90.5677 88.3607 89.7756C89.7063 89.0187 90.8166 87.9098 91.5702 86.5703C92.3508 85.1333 92.7487 83.5227 92.7267 81.8907C92.7525 80.2554 92.3454 78.6419 91.5464 77.2112ZM88.7383 85.0259C88.2664 85.9169 87.556 86.6618 86.6849 87.1785C85.7644 87.7188 84.7103 87.9944 83.6408 87.974C82.5703 88.0007 81.5143 87.7247 80.5964 87.1785C79.7183 86.6632 78.9999 85.9186 78.5194 85.0259C78.0229 84.0374 77.7644 82.9483 77.7644 81.8438C77.7644 80.7394 78.0229 79.6503 78.5194 78.6618C78.9922 77.7578 79.712 77.0037 80.5964 76.4859C81.5143 75.9397 82.5703 75.6637 83.6408 75.6904C84.7103 75.6699 85.7644 75.9453 86.6849 76.4859C87.5623 77.0052 88.2741 77.7592 88.7383 78.6618C89.2439 79.6475 89.5074 80.738 89.5074 81.8438C89.5074 82.9497 89.2439 84.0402 88.7383 85.0259Z" fill="black"/>
<path d="M141.012 77.2112C140.251 75.8766 139.143 74.7693 137.802 74.0056C136.359 73.2135 134.731 72.8102 133.082 72.8358C131.432 72.8023 129.802 73.2061 128.362 74.0056C126.992 74.7554 125.858 75.8643 125.082 77.2112C124.319 78.655 123.92 80.2608 123.92 81.8907C123.92 83.5207 124.319 85.1262 125.082 86.5703C125.845 87.9106 126.963 89.019 128.315 89.7756C129.755 90.5751 131.385 90.9789 133.035 90.9454C134.684 90.971 136.311 90.5677 137.755 89.7756C139.127 89.029 140.262 87.9191 141.035 86.5703C141.816 85.1333 142.214 83.5227 142.192 81.8907C142.217 80.2554 141.811 78.6419 141.012 77.2112ZM138.203 85.1194C137.731 86.0104 137.021 86.7553 136.15 87.272C135.23 87.8126 134.175 88.088 133.106 88.0675C132.035 88.0942 130.979 87.8182 130.061 87.272C129.183 86.7567 128.465 86.0121 127.984 85.1194C127.488 84.1309 127.229 83.0418 127.229 81.9374C127.229 80.8332 127.488 79.7438 127.984 78.7553C128.457 77.8513 129.177 77.0972 130.061 76.5794C130.979 76.0332 132.035 75.7572 133.106 75.7839C134.175 75.7634 135.23 76.0391 136.15 76.5794C137.027 77.0987 137.739 77.853 138.203 78.7553C138.709 79.7413 138.973 80.8315 138.973 81.9374C138.973 83.0435 138.709 84.1337 138.203 85.1194Z" fill="black"/>
<path d="M139.241 20.9167C138.717 19.9141 137.893 19.0969 136.882 18.577C135.867 18.011 134.718 17.728 133.554 17.758C132.242 17.7582 130.95 18.0883 129.802 18.7173C129.041 19.1318 128.368 19.6879 127.819 20.3552C127.588 20.6326 127.383 20.9302 127.206 21.2443C126.574 22.3993 126.257 23.6976 126.285 25.0113H129.023V24.8709C129.01 23.8067 129.407 22.7777 130.132 21.993C130.485 21.6039 130.919 21.2956 131.404 21.0895C131.888 20.8835 132.413 20.7846 132.941 20.7997C133.434 20.7825 133.925 20.8626 134.387 21.0353C134.849 21.208 135.272 21.4699 135.631 21.8058C135.998 22.2234 136.277 22.7099 136.452 23.2364C136.626 23.7629 136.692 24.3187 136.646 24.8709V34.2298C136.646 34.6765 136.825 35.1051 137.143 35.4212C137.462 35.7369 137.894 35.9146 138.345 35.9146C138.572 35.9208 138.799 35.8805 139.01 35.796C139.221 35.7113 139.413 35.5846 139.572 35.4232C139.724 35.2649 139.843 35.0773 139.92 34.8721C139.997 34.6672 140.031 34.4486 140.02 34.2298V24.8709C140.089 23.5096 139.822 22.1523 139.241 20.9167ZM128.244 20.9167C128.125 20.6826 127.99 20.456 127.843 20.2382C127.374 19.518 126.734 18.9233 125.979 18.5068C124.957 17.9389 123.798 17.6559 122.627 17.6879C121.364 17.6838 120.127 18.0412 119.064 18.7173C118.643 18.9748 118.255 19.2811 117.907 19.6298C117.412 20.0893 116.998 20.6269 116.68 21.2209C116.093 22.3896 115.802 23.6825 115.831 24.9879H118.002C117.978 24.4353 118.066 23.8835 118.26 23.3651C118.455 22.8467 118.752 22.3722 119.135 21.9696C119.852 21.2375 120.828 20.8092 121.858 20.7743C122.887 20.7394 123.89 21.1007 124.657 21.7824C125.024 22.2 125.303 22.6865 125.478 23.213C125.652 23.7394 125.718 24.2953 125.672 24.8475V34.2065C125.665 34.4276 125.704 34.6475 125.786 34.853C125.867 35.0588 125.99 35.2461 126.147 35.4035C126.303 35.5607 126.491 35.6852 126.697 35.769C126.903 35.8529 127.124 35.8944 127.347 35.891C127.576 35.9021 127.803 35.8637 128.015 35.779C128.227 35.694 128.418 35.5647 128.575 35.3999C128.731 35.2433 128.854 35.0568 128.935 34.8516C129.016 34.6464 129.054 34.4267 129.046 34.2065V24.8475C129.063 23.4856 128.755 22.1391 128.15 20.9167H128.244ZM117.553 18.343C117.391 18.1881 117.198 18.0669 116.987 17.9866C116.777 17.9062 116.552 17.8683 116.326 17.875C116.104 17.8674 115.883 17.905 115.675 17.9855C115.468 18.066 115.28 18.1876 115.123 18.343C114.958 18.4947 114.829 18.6799 114.743 18.8858C114.657 19.0918 114.618 19.3137 114.627 19.5362V34.1129C114.627 34.5597 114.806 34.9883 115.125 35.3041C115.443 35.6201 115.876 35.7975 116.326 35.7975C116.551 35.8077 116.775 35.771 116.985 35.6897C117.194 35.6082 117.385 35.4843 117.542 35.3254C117.7 35.1665 117.823 34.9764 117.902 34.7675C117.981 34.5586 118.015 34.3355 118.002 34.1129V19.5129C118.001 19.2906 117.953 19.0711 117.859 18.8691C117.766 18.6672 117.629 18.4878 117.459 18.343H117.553Z" fill="black"/>
<path d="M170.134 20.9167C169.609 19.9141 168.785 19.0969 167.774 18.5769C166.759 18.011 165.609 17.728 164.446 17.758C163.142 17.7622 161.859 18.0921 160.717 18.7173C159.956 19.1318 159.283 19.6879 158.735 20.3552C158.512 20.5729 158.307 20.8076 158.121 21.0571C157.49 22.212 157.172 23.5104 157.201 24.8241H159.939V24.6837C159.926 23.6195 160.323 22.5905 161.048 21.8058C161.404 21.4149 161.842 21.1056 162.331 20.8996C162.82 20.6935 163.348 20.5955 163.88 20.6125C164.369 20.5972 164.857 20.6782 165.315 20.8508C165.772 21.0235 166.191 21.2845 166.546 21.6186C166.923 22.0446 167.207 22.5427 167.382 23.082C167.556 23.6212 167.617 24.1903 167.561 24.7539V34.1129C167.549 34.3337 167.585 34.5546 167.666 34.7603C167.748 34.9661 167.873 35.1523 168.033 35.306C168.186 35.4692 168.373 35.5976 168.581 35.6823C168.788 35.7673 169.012 35.8065 169.237 35.7974C169.462 35.8077 169.686 35.771 169.896 35.6897C170.105 35.6084 170.295 35.4842 170.453 35.3253C170.611 35.1665 170.734 34.9763 170.813 34.7674C170.892 34.5585 170.926 34.3357 170.912 34.1129V24.7539C170.962 23.4318 170.695 22.1168 170.134 20.9167ZM159.136 20.9167C159.017 20.6826 158.882 20.456 158.735 20.2381C158.266 19.518 157.626 18.9233 156.871 18.5067C155.829 17.9415 154.66 17.6453 153.472 17.6453C152.285 17.6453 151.116 17.9415 150.074 18.5067C149.645 18.7637 149.25 19.07 148.894 19.4192C148.405 19.8785 147.998 20.4164 147.69 21.0103C147.085 22.1733 146.784 23.4688 146.817 24.7773H148.894C148.87 24.2247 148.958 23.6729 149.152 23.1545C149.347 22.6361 149.644 22.1616 150.027 21.759C150.745 21.0269 151.72 20.5986 152.75 20.5637C153.779 20.5288 154.782 20.89 155.549 21.5718C155.916 21.9894 156.196 22.4759 156.37 23.0023C156.544 23.5288 156.61 24.0846 156.564 24.6369V33.9958C156.563 34.3298 156.662 34.6563 156.849 34.934C157.035 35.2117 157.301 35.4282 157.612 35.5561C157.923 35.684 158.266 35.7173 158.595 35.6522C158.926 35.5868 159.229 35.4257 159.466 35.1892C159.627 35.0355 159.752 34.8493 159.833 34.6432C159.915 34.4375 159.951 34.2166 159.939 33.9958V24.6369C159.962 23.3522 159.688 22.0793 159.136 20.9167ZM148.445 18.3429C148.284 18.1858 148.092 18.0632 147.881 17.9827C147.67 17.9022 147.444 17.8656 147.218 17.875C146.771 17.8702 146.339 18.038 146.015 18.3429C145.854 18.4968 145.729 18.6829 145.648 18.8887C145.566 19.0946 145.531 19.3154 145.543 19.5362V34.1129C145.531 34.3337 145.566 34.5546 145.648 34.7603C145.729 34.9661 145.854 35.1523 146.015 35.306C146.17 35.4657 146.358 35.5917 146.565 35.6763C146.772 35.7608 146.994 35.802 147.218 35.7974C147.446 35.8085 147.674 35.7701 147.886 35.6852C148.098 35.6005 148.289 35.4711 148.445 35.306C148.598 35.1477 148.716 34.9604 148.793 34.7552C148.87 34.55 148.905 34.3315 148.894 34.1129V19.5128C148.906 19.2976 148.872 19.0823 148.795 18.8808C148.717 18.6794 148.598 18.4961 148.445 18.3429Z" fill="black"/>
<path d="M142.852 69.2558H142.711H70.9675C70.0321 68.993 69.1902 68.4737 68.5389 67.7575C67.8878 67.0416 67.4535 66.158 67.2861 65.2081L57.8227 23.3968L55.7223 14.0378C55.5199 13.0639 55.0956 12.1487 54.4822 11.362C53.8687 10.5754 53.0821 9.93805 52.1822 9.49871C51.3799 8.96056 44.4887 5.21697 40.3825 2.99421C40.0132 2.79492 39.7335 2.46543 39.5979 2.07106C39.4623 1.67669 39.4812 1.24623 39.6509 0.865037C39.8607 0.483763 40.213 0.199217 40.6322 0.0723821C41.0513 -0.0544522 41.5039 -0.0134835 41.8926 0.186509C43.0255 0.794843 52.843 6.08267 54.0467 6.87821C55.302 7.54892 56.3957 8.48221 57.2514 9.61339C58.1071 10.7446 58.7048 12.0467 59.0026 13.4295L61.1265 22.7885C64.3833 37.1313 70.2359 62.9387 70.5665 64.4595C70.6129 64.7861 70.7382 65.097 70.9311 65.3656C71.124 65.6344 71.3794 65.8533 71.6756 66.0036H142.711C144.41 66.0036 145.189 65.7697 145.566 64.4362C146.322 61.8391 151.042 40.2431 151.042 40.0325C151.143 39.6099 151.407 39.2435 151.777 39.0116C152.148 38.7797 152.596 38.7012 153.024 38.7925C153.448 38.8874 153.818 39.1449 154.052 39.5084C154.286 39.8722 154.366 40.3127 154.275 40.7345C154.086 41.6235 149.413 62.6346 148.658 65.2783C148.319 66.5138 147.55 67.5904 146.488 68.3182C145.425 69.0461 144.138 69.3781 142.852 69.2558Z" fill="black"/>
<path d="M84.0831 105.917C81.5345 101.838 72.9726 95.2113 59.1139 101.335C66.0686 94.24 80.7993 85.2235 84.0831 105.917Z" stroke="black" stroke-width="3" stroke-linejoin="round"/>
</svg>
