<svg width="11" height="16" viewBox="0 0 11 16" fill="none" xmlns="http://www.w3.org/2000/svg">
<path d="M1.32501 15.5083C1.06529 15.2486 0.935425 14.9181 0.935425 14.5167C0.935425 14.1153 1.06529 13.7847 1.32501 13.525L6.85001 8L1.32501 2.475C1.06529 2.21528 0.935425 1.88472 0.935425 1.48333C0.935425 1.08194 1.06529 0.751386 1.32501 0.491664C1.58473 0.231942 1.91528 0.102081 2.31667 0.102081C2.71806 0.102081 3.04862 0.231942 3.30834 0.491664L9.82501 7.00833C9.96667 7.15 10.0673 7.30347 10.1268 7.46875C10.1853 7.63403 10.2146 7.81111 10.2146 8C10.2146 8.18889 10.1853 8.36597 10.1268 8.53125C10.0673 8.69653 9.96667 8.85 9.82501 8.99166L3.30834 15.5083C3.04862 15.7681 2.71806 15.8979 2.31667 15.8979C1.91528 15.8979 1.58473 15.7681 1.32501 15.5083Z" fill="#FAFAFA"/>
</svg>
