<svg width="192" height="192" viewBox="0 0 192 192" fill="none" xmlns="http://www.w3.org/2000/svg">
<path d="M6.66864 60.0111C7.67482 59.4263 8.82285 59.1271 9.98797 59.1461C10.8325 59.1272 11.6714 59.2882 12.4483 59.6182C13.2252 59.9482 13.9223 60.4397 14.4928 61.0597C14.7997 61.376 15.1938 61.5949 15.6255 61.6888C15.8238 61.7421 16.032 61.7486 16.2332 61.7076C16.4345 61.6667 16.6233 61.5794 16.7847 61.4529C17.184 61.1986 17.4748 60.8065 17.6013 60.3519C17.6419 60.1362 17.6296 59.914 17.5654 59.704C17.5012 59.4941 17.387 59.3027 17.2325 59.1461C16.3472 58.0472 15.2327 57.1528 13.9659 56.5247C12.7157 55.9671 11.3577 55.6897 9.98797 55.7121C8.14432 55.6616 6.32205 56.1149 4.71917 57.0227C3.24576 57.9266 2.05868 59.2259 1.29448 60.7713C0.411773 62.3769 -0.033256 64.1844 0.00362964 66.0141C-0.045761 67.8484 0.409718 69.6615 1.32082 71.2568C2.16263 72.7798 3.41184 74.0411 4.92992 74.9005C6.53267 75.8115 8.35334 76.2735 10.1987 76.2376C12.6517 76.32 15.038 75.4342 16.8373 73.7733C16.9823 73.6358 17.0952 73.4683 17.168 73.2826C17.2408 73.097 17.2718 72.8976 17.2589 72.6986C17.1834 72.236 16.9278 71.8217 16.5476 71.5453C16.3984 71.4129 16.2224 71.3141 16.0316 71.2552C15.8407 71.1966 15.6393 71.1791 15.4411 71.2046C14.9934 71.254 14.5711 71.4367 14.2293 71.7287C13.7014 72.165 13.0928 72.4945 12.4379 72.6986C11.7043 72.9222 10.9395 73.0285 10.1724 73.0132C8.96928 73.0422 7.78234 72.7333 6.74765 72.122C5.77946 71.5265 4.98832 70.6849 4.45574 69.6841C3.884 68.5923 3.5943 67.3761 3.61274 66.1452C3.57741 64.8904 3.85818 63.6468 4.42941 62.5277C4.91213 61.4888 5.69072 60.6138 6.66864 60.0111Z" fill="white"/>
<path d="M39.5193 64.8345L38.8345 68.7142V74.3239C38.8272 74.5716 38.8707 74.818 38.9619 75.0483C39.0528 75.2788 39.19 75.4886 39.3648 75.6651C39.5395 75.8411 39.7484 75.9806 39.9785 76.0745C40.2089 76.1685 40.456 76.215 40.7049 76.2111C41.208 76.2111 41.6905 76.0124 42.046 75.6584C42.4019 75.3046 42.6016 74.8244 42.6016 74.3239V66.0403L39.5193 64.8345ZM41.2316 60.9286C40.3603 59.4279 39.118 58.1736 37.6227 57.2849C36.0428 56.3983 34.2598 55.9324 32.446 55.9324C30.6323 55.9324 28.8493 56.3983 27.2695 57.2849C25.7278 58.1211 24.4299 59.3403 23.5023 60.8238C22.5894 62.4196 22.1253 64.2306 22.1588 66.0665C22.1223 67.8898 22.5481 69.6931 23.397 71.3094C24.1727 72.8024 25.3373 74.0608 26.769 74.9531C28.2286 75.8268 29.8997 76.2882 31.6031 76.2882C33.3065 76.2882 34.9776 75.8268 36.4371 74.9531C37.863 74.0542 39.0262 72.7973 39.8092 71.3094C40.6579 69.6931 41.0838 67.8898 41.0473 66.0665H42.4963C42.5337 64.2267 42.0598 62.4124 41.1264 60.8238L41.2316 60.9286ZM38.0179 69.553C37.4828 70.5674 36.6819 71.4192 35.6995 72.0172C34.6912 72.6222 33.5312 72.9311 32.3539 72.9085C31.1679 72.9333 29.999 72.6244 28.9819 72.0172C27.9844 71.4215 27.1656 70.5703 26.6109 69.553C26.0225 68.4761 25.723 67.2661 25.7416 66.0403C25.7221 64.8061 26.0214 63.5875 26.6109 62.5014C27.1656 61.4839 27.9844 60.633 28.9819 60.0373C29.9914 59.4349 31.1505 59.1261 32.3276 59.1461C33.5049 59.1232 34.6646 59.4322 35.6732 60.0373C36.6553 60.6353 37.4566 61.4868 37.9913 62.5014C38.5718 63.59 38.862 64.8084 38.8345 66.0403C38.8704 67.2616 38.5891 68.4716 38.0179 69.553Z" fill="white"/>
<path d="M50.9789 59.5917C50.255 60.7851 49.8806 62.1562 49.8989 63.55H51.7693V58.5432C51.4675 58.8624 51.2025 59.2141 50.9789 59.5917ZM51.3216 56.4723C50.9737 56.1638 50.5229 55.9955 50.0569 56.0005C49.8125 55.985 49.5677 56.0188 49.3369 56.0999C49.1059 56.181 48.8937 56.3077 48.7133 56.4723C48.5373 56.6509 48.4013 56.8649 48.3152 57.1C48.2288 57.3351 48.1939 57.5859 48.2128 57.8354V74.2192C48.1901 74.4729 48.223 74.7286 48.3094 74.9687C48.3958 75.2085 48.5337 75.4269 48.7133 75.6084C48.896 75.7683 49.1091 75.8902 49.3398 75.9666C49.5705 76.0434 49.8144 76.073 50.0569 76.0542C50.3097 76.0736 50.5638 76.0418 50.8038 75.9609C51.0438 75.8797 51.2646 75.7508 51.4531 75.5823C51.616 75.3967 51.7395 75.1801 51.8166 74.9461C51.8934 74.7117 51.9222 74.4647 51.9011 74.2192V57.8354C51.9069 57.5765 51.8585 57.3191 51.7587 57.0799C51.6589 56.8407 51.5097 56.6248 51.3216 56.4461V56.4723Z" fill="white"/>
<path d="M76.7172 57.3898C76.7236 57.5966 76.6845 57.8024 76.6026 57.9926C76.5207 58.1829 76.3978 58.3529 76.2429 58.4907C75.8938 58.7943 75.4416 58.9537 74.9783 58.9364H57.96C57.2596 58.9547 56.5623 59.0425 55.8791 59.1985C54.7674 59.3915 53.7396 59.9121 52.9284 60.6927C52.5616 61.0605 52.2743 61.4991 52.0839 61.9814C51.8938 62.4637 51.8045 62.9797 51.8221 63.4976V58.5432C52.425 57.8281 53.1578 57.2323 53.9821 56.7868C55.1984 56.1132 56.568 55.7612 57.96 55.7645H74.952C75.4151 55.7472 75.8676 55.9066 76.2164 56.2102C76.3812 56.3587 76.5111 56.5412 76.5975 56.745C76.6842 56.9487 76.7248 57.1688 76.7172 57.3898Z" fill="white"/>
<path d="M86.4377 60.0112C87.4441 59.4264 88.592 59.1272 89.7571 59.1461C90.6016 59.1272 91.4406 59.2882 92.2176 59.6182C92.9945 59.9483 93.6915 60.4398 94.2621 61.0597C94.575 61.3819 94.9795 61.6014 95.4211 61.6889C95.615 61.7421 95.8192 61.7485 96.0163 61.7074C96.2131 61.6664 96.3974 61.5791 96.5539 61.453C96.9929 61.2187 97.3235 60.8239 97.4758 60.352C97.5165 60.1363 97.5043 59.914 97.44 59.7041C97.3757 59.4942 97.2614 59.3028 97.1072 59.1461C96.2253 58.0543 95.1209 57.1608 93.8669 56.5248C92.6064 55.9699 91.2406 55.6927 89.8624 55.7121C88.0192 55.6656 86.1981 56.1187 84.5939 57.0228C83.1059 57.8835 81.8845 59.135 81.0637 60.6403C80.1811 62.2459 79.736 64.0533 79.7728 65.8831C79.7235 67.7175 80.1789 69.5304 81.0899 71.126C81.9395 72.6433 83.1869 73.9026 84.6992 74.7697C86.3017 75.6804 88.1225 76.1424 89.968 76.1064C92.4208 76.1892 94.807 75.3033 96.6067 73.6425C96.7673 73.4989 96.8915 73.3196 96.9696 73.119C97.0473 72.9187 97.0765 72.7028 97.0544 72.4891C96.9779 72.0332 96.7337 71.6221 96.3696 71.3355C96.2176 71.2075 96.0413 71.1113 95.8512 71.0527C95.6611 70.9942 95.4611 70.9744 95.263 70.9948C94.8057 71.0375 94.3728 71.2206 94.0249 71.5192C93.5078 72.0335 92.8886 72.4353 92.207 72.6987C91.4736 72.9222 90.7088 73.0285 89.9414 73.0133C88.7725 73.0263 87.6233 72.7111 86.6262 72.1035C85.6291 71.496 84.824 70.6213 84.304 69.5794C83.7321 68.4875 83.4425 67.2713 83.4611 66.0404C83.4339 64.7834 83.7235 63.5397 84.304 62.4229C84.775 61.4364 85.5142 60.601 86.4377 60.0112Z" fill="white"/>
<path d="M120.948 60.7451C120.1 59.2498 118.862 58.0093 117.365 57.1538C115.755 56.2664 113.938 55.8145 112.097 55.8431C110.255 55.8057 108.436 56.2582 106.828 57.1538C105.319 58.0013 104.071 59.2432 103.219 60.7451C102.327 62.3482 101.873 64.1558 101.902 65.9879C101.873 67.82 102.327 69.6278 103.219 71.2307C104.071 72.7327 105.319 73.9746 106.828 74.8219C108.436 75.7176 110.255 76.1701 112.097 76.1328C113.938 76.1615 115.755 75.7093 117.365 74.8219C118.868 73.9739 120.107 72.7318 120.948 71.2307C121.82 69.6208 122.264 67.8163 122.239 65.9879C122.276 64.1582 121.831 62.3507 120.948 60.7451ZM117.813 69.6055C117.287 70.6037 116.494 71.438 115.522 72.0172C114.494 72.6225 113.317 72.9311 112.123 72.9085C110.928 72.9384 109.749 72.6292 108.725 72.0172C107.745 71.4396 106.943 70.6053 106.406 69.6055C105.817 68.5108 105.526 67.2816 105.564 66.0403C105.529 64.7993 105.82 63.5708 106.406 62.4753C106.934 61.4623 107.738 60.6175 108.725 60.0374C109.749 59.4253 110.928 59.1162 112.123 59.1461C113.317 59.1233 114.494 59.4319 115.522 60.0374C116.501 60.6191 117.295 61.4642 117.813 62.4753C118.378 63.5797 118.672 64.8013 118.672 66.0403C118.672 67.2794 118.378 68.5009 117.813 69.6055Z" fill="white"/>
<path d="M102.191 122.505C101.343 121.01 100.105 119.769 98.6087 118.914C96.9978 118.026 95.1811 117.574 93.3399 117.603C91.4976 117.565 89.6791 118.018 88.0711 118.914C86.5715 119.765 85.3328 121.007 84.4883 122.505C83.6368 124.123 83.192 125.922 83.192 127.748C83.192 129.574 83.6368 131.373 84.4883 132.991C85.3402 134.492 86.5882 135.734 88.0976 136.582C89.7053 137.478 91.5242 137.93 93.3664 137.893C95.2074 137.921 97.024 137.469 98.6352 136.582C100.137 135.734 101.377 134.491 102.218 132.991C103.089 131.381 103.533 129.576 103.509 127.748C103.538 125.916 103.083 124.108 102.191 122.505ZM99.0567 131.26C98.5299 132.259 97.737 133.093 96.7645 133.672C95.737 134.277 94.5603 134.586 93.3664 134.563C92.1715 134.593 90.9927 134.284 89.968 133.672C88.9879 133.095 88.1859 132.261 87.6496 131.26C87.0954 130.153 86.8067 128.933 86.8067 127.695C86.8067 126.458 87.0954 125.238 87.6496 124.13C88.1773 123.117 88.9808 122.273 89.968 121.693C90.9927 121.081 92.1715 120.771 93.3664 120.801C94.5603 120.778 95.737 121.087 96.7645 121.693C97.744 122.274 98.5386 123.119 99.0567 124.13C99.6211 125.235 99.9152 126.456 99.9152 127.695C99.9152 128.934 99.6211 130.156 99.0567 131.26Z" fill="white"/>
<path d="M157.408 122.505C156.559 121.01 155.322 119.769 153.825 118.914C152.214 118.026 150.398 117.574 148.557 117.603C146.715 117.565 144.896 118.018 143.288 118.914C141.759 119.754 140.492 120.996 139.626 122.505C138.774 124.123 138.33 125.922 138.33 127.748C138.33 129.574 138.774 131.373 139.626 132.991C140.478 134.492 141.726 135.734 143.235 136.582C144.843 137.478 146.662 137.93 148.504 137.893C150.345 137.921 152.162 137.469 153.773 136.582C155.304 135.745 156.572 134.502 157.435 132.991C158.306 131.381 158.75 129.576 158.725 127.748C158.754 125.916 158.3 124.108 157.408 122.505ZM154.273 131.365C153.747 132.363 152.954 133.198 151.981 133.777C150.954 134.383 149.777 134.691 148.583 134.668C147.388 134.698 146.21 134.389 145.185 133.777C144.204 133.2 143.403 132.365 142.866 131.365C142.312 130.258 142.023 129.038 142.023 127.8C142.023 126.563 142.312 125.343 142.866 124.235C143.394 123.222 144.197 122.377 145.185 121.797C146.21 121.185 147.388 120.876 148.583 120.906C149.777 120.883 150.954 121.192 151.981 121.797C152.961 122.379 153.755 123.224 154.273 124.235C154.838 125.34 155.132 126.561 155.132 127.8C155.132 129.039 154.838 130.261 154.273 131.365Z" fill="white"/>
<path d="M155.432 59.4345C154.847 58.3112 153.927 57.3956 152.798 56.813C151.666 56.179 150.382 55.8619 149.083 55.8956C147.619 55.8958 146.177 56.2656 144.895 56.9703C144.045 57.4347 143.294 58.0577 142.682 58.8053C142.424 59.1161 142.195 59.4495 141.997 59.8014C141.292 61.0955 140.938 62.5501 140.97 64.0219H144.026V63.8646C144.011 62.6723 144.454 61.5195 145.264 60.6403C145.657 60.2044 146.142 59.859 146.683 59.6281C147.224 59.3972 147.81 59.2864 148.399 59.3034C148.949 59.2841 149.498 59.3738 150.014 59.5673C150.529 59.7608 151.001 60.0542 151.402 60.4306C151.812 60.8984 152.123 61.4434 152.318 62.0333C152.513 62.6232 152.586 63.2459 152.535 63.8646V74.35C152.535 74.8506 152.734 75.3307 153.09 75.6848C153.446 76.0386 153.928 76.2376 154.431 76.2376C154.685 76.2446 154.938 76.1994 155.174 76.1048C155.41 76.0099 155.623 75.8679 155.801 75.687C155.971 75.5097 156.103 75.2995 156.189 75.0696C156.275 74.84 156.314 74.5952 156.302 74.35V63.8646C156.379 62.3395 156.08 60.8188 155.432 59.4345ZM143.156 59.4345C143.023 59.1722 142.873 58.9183 142.708 58.6742C142.185 57.8674 141.47 57.2011 140.627 56.7344C139.486 56.0982 138.194 55.7812 136.886 55.8169C135.476 55.8123 134.095 56.2129 132.908 56.9703C132.439 57.2587 132.005 57.6019 131.618 57.9927C131.065 58.5075 130.602 59.1098 130.248 59.7752C129.592 61.0847 129.267 62.5331 129.299 63.9956H131.723C131.696 63.3765 131.794 62.7583 132.011 62.1776C132.228 61.5968 132.56 61.0651 132.987 60.6141C133.789 59.7939 134.878 59.314 136.027 59.2749C137.176 59.2358 138.296 59.6405 139.152 60.4044C139.562 60.8722 139.874 61.4172 140.068 62.0071C140.263 62.5969 140.336 63.2197 140.285 63.8384V74.3239C140.277 74.5716 140.321 74.8181 140.412 75.0483C140.503 75.2788 140.64 75.4887 140.815 75.6651C140.99 75.8412 141.199 75.9806 141.429 76.0746C141.659 76.1685 141.906 76.215 142.155 76.2112C142.41 76.2236 142.664 76.1806 142.901 76.0857C143.137 75.9905 143.35 75.8456 143.525 75.6609C143.7 75.4855 143.837 75.2766 143.927 75.0467C144.018 74.8168 144.06 74.5707 144.052 74.3239V63.8384C144.07 62.3126 143.727 60.8039 143.051 59.4345H143.156ZM131.222 56.5509C131.041 56.3774 130.826 56.2416 130.59 56.1516C130.355 56.0616 130.104 56.0191 129.852 56.0266C129.604 56.0181 129.357 56.0602 129.126 56.1504C128.895 56.2406 128.685 56.3769 128.509 56.5509C128.325 56.7209 128.181 56.9283 128.085 57.1591C127.99 57.3899 127.946 57.6385 127.956 57.8878V74.2191C127.956 74.7197 128.155 75.1999 128.511 75.5536C128.867 75.9077 129.349 76.1064 129.852 76.1064C130.103 76.1179 130.354 76.0768 130.588 75.9857C130.822 75.8943 131.034 75.7555 131.21 75.5775C131.387 75.3995 131.523 75.1865 131.612 74.9524C131.7 74.7184 131.738 74.4684 131.723 74.2191V57.8616C131.723 57.6126 131.668 57.3666 131.564 57.1404C131.459 56.9142 131.307 56.7131 131.117 56.5509H131.222Z" fill="white"/>
<path d="M189.917 59.4345C189.331 58.3112 188.411 57.3956 187.282 56.8131C186.15 56.179 184.866 55.862 183.568 55.8956C182.112 55.9003 180.68 56.2699 179.405 56.9704C178.556 57.4347 177.805 58.0578 177.192 58.8054C176.944 59.0494 176.715 59.3123 176.508 59.5918C175.802 60.8858 175.448 62.3404 175.48 63.8122H178.536V63.6549C178.522 62.4627 178.965 61.3098 179.774 60.4306C180.172 59.9927 180.661 59.6462 181.207 59.4153C181.753 59.1844 182.342 59.0747 182.935 59.0937C183.482 59.0765 184.026 59.1673 184.537 59.3607C185.048 59.5542 185.516 59.8466 185.912 60.2209C186.333 60.6982 186.65 61.2562 186.845 61.8604C187.039 62.4646 187.108 63.1021 187.045 63.7336V74.2191C187.032 74.4666 187.072 74.714 187.163 74.9445C187.253 75.175 187.393 75.3836 187.572 75.5559C187.743 75.7386 187.951 75.8826 188.183 75.9775C188.415 76.0727 188.665 76.1166 188.916 76.1064C189.166 76.1179 189.417 76.0768 189.651 75.9857C189.885 75.8947 190.097 75.7555 190.273 75.5775C190.45 75.3995 190.587 75.1865 190.675 74.9525C190.763 74.7184 190.801 74.4688 190.786 74.2191V63.7336C190.841 62.2523 190.543 60.7791 189.917 59.4345ZM177.64 59.4345C177.507 59.1722 177.357 58.9183 177.192 58.6743C176.669 57.8674 175.955 57.2012 175.111 56.7345C173.948 56.1012 172.644 55.7693 171.318 55.7693C169.992 55.7693 168.687 56.1012 167.524 56.7345C167.046 57.0224 166.604 57.3655 166.207 57.7568C165.661 58.2713 165.207 58.874 164.864 59.5393C164.188 60.8423 163.852 62.2938 163.889 63.7598H166.207C166.18 63.1407 166.278 62.5225 166.495 61.9417C166.713 61.3609 167.045 60.8293 167.472 60.3782C168.273 59.558 169.362 59.0781 170.511 59.039C171.661 58.9999 172.78 59.4046 173.636 60.1685C174.046 60.6364 174.358 61.1814 174.552 61.7712C174.747 62.3611 174.821 62.9838 174.769 63.6025V74.088C174.768 74.4621 174.879 74.828 175.087 75.1391C175.295 75.4502 175.592 75.6928 175.939 75.8361C176.286 75.9794 176.669 76.0166 177.037 75.9437C177.405 75.8705 177.744 75.6899 178.009 75.425C178.188 75.2527 178.328 75.0442 178.419 74.8133C178.509 74.5828 178.549 74.3354 178.536 74.088V63.6025C178.563 62.1632 178.256 60.7371 177.64 59.4345ZM165.707 56.5509C165.526 56.3749 165.312 56.2376 165.076 56.1474C164.841 56.0572 164.589 56.0161 164.337 56.0267C163.837 56.0213 163.356 56.2093 162.993 56.5509C162.814 56.7233 162.675 56.9318 162.584 57.1624C162.493 57.3931 162.453 57.6405 162.466 57.8879V74.2191C162.453 74.4666 162.493 74.714 162.584 74.9445C162.675 75.175 162.814 75.3836 162.993 75.5559C163.167 75.7348 163.376 75.8759 163.607 75.9708C163.838 76.0653 164.087 76.1115 164.337 76.1064C164.591 76.1188 164.846 76.0759 165.082 75.9806C165.319 75.8858 165.532 75.7409 165.707 75.5559C165.877 75.3785 166.009 75.1687 166.095 74.9388C166.181 74.7089 166.219 74.464 166.207 74.2191V57.8617C166.22 57.6205 166.182 57.3793 166.096 57.1536C166.01 56.9279 165.877 56.7226 165.707 56.5509Z" fill="white"/>
<path d="M159.463 113.592H159.305H79.2195C78.1754 113.298 77.2355 112.716 76.5085 111.913C75.7818 111.111 75.297 110.121 75.1101 109.057L64.5463 62.2131L62.2016 51.7276C61.9757 50.6364 61.5021 49.611 60.8173 48.7296C60.1325 47.8483 59.2544 47.1343 58.2499 46.6421C57.3543 46.0391 49.6618 41.8449 45.0781 39.3546C44.6659 39.1313 44.3536 38.7622 44.2023 38.3204C44.0509 37.8785 44.072 37.3962 44.2615 36.9692C44.4957 36.542 44.889 36.2232 45.3568 36.0811C45.8247 35.939 46.3299 35.9849 46.7639 36.209C48.0285 36.8905 58.9875 42.8148 60.3312 43.7061C61.7325 44.4576 62.9533 45.5032 63.9085 46.7706C64.8637 48.0379 65.5309 49.4968 65.8634 51.046L68.2343 61.5316C71.8698 77.6008 78.4029 106.515 78.7719 108.219C78.8237 108.584 78.9635 108.933 79.1789 109.234C79.3943 109.535 79.6794 109.78 80.0099 109.949H159.305C161.202 109.949 162.071 109.686 162.492 108.192C163.336 105.283 168.604 81.0871 168.604 80.8512C168.717 80.3777 169.012 79.9673 169.426 79.7074C169.84 79.4476 170.339 79.3597 170.817 79.4619C171.291 79.5683 171.703 79.8568 171.965 80.264C172.226 80.6716 172.316 81.1652 172.213 81.6377C172.003 82.6337 166.787 106.174 165.944 109.136C165.565 110.52 164.707 111.726 163.521 112.542C162.335 113.357 160.898 113.729 159.463 113.592Z" fill="white"/>
<path d="M75.2 136.303C78.4 141.61 89.28 150.313 107.2 142.671C98.1334 151.693 79.04 163.05 75.2 136.303Z" stroke="white" stroke-linejoin="round"/>
</svg>
