<svg width="20" height="20" viewBox="0 0 20 20" fill="none" xmlns="http://www.w3.org/2000/svg">
<path d="M19.6707 18.1003L15.2786 13.7064C16.5955 11.9903 17.2103 9.83754 16.9983 7.68482C16.7864 5.53211 15.7635 3.54062 14.1372 2.11435C12.5109 0.68807 10.403 -0.0661929 8.24099 0.00456334C6.07902 0.0753195 4.02492 0.965797 2.49536 2.49536C0.965797 4.02492 0.0753195 6.07902 0.00456334 8.24099C-0.0661929 10.403 0.68807 12.5109 2.11435 14.1372C3.54062 15.7635 5.53211 16.7864 7.68483 16.9983C9.83754 17.2103 11.9903 16.5955 13.7064 15.2786L18.1021 19.6753C18.2054 19.7785 18.3279 19.8604 18.4628 19.9163C18.5977 19.9722 18.7423 20.0009 18.8883 20.0009C19.0343 20.0009 19.1788 19.9722 19.3137 19.9163C19.4486 19.8604 19.5711 19.7785 19.6744 19.6753C19.7776 19.5721 19.8595 19.4495 19.9154 19.3146C19.9712 19.1797 20 19.0352 20 18.8892C20 18.7432 19.9712 18.5986 19.9154 18.4637C19.8595 18.3289 19.7776 18.2063 19.6744 18.1031L19.6707 18.1003ZM2.23829 8.52723C2.23829 7.28339 2.60713 6.06749 3.29816 5.03328C3.9892 3.99907 4.9714 3.193 6.12055 2.717C7.26971 2.24101 8.53421 2.11647 9.75414 2.35913C10.9741 2.60179 12.0947 3.20075 12.9742 4.08027C13.8537 4.9598 14.4527 6.08038 14.6953 7.30032C14.938 8.52025 14.8134 9.78475 14.3375 10.9339C13.8615 12.0831 13.0554 13.0653 12.0212 13.7563C10.987 14.4473 9.77106 14.8162 8.52723 14.8162C6.85982 14.8145 5.2612 14.1513 4.08217 12.9723C2.90313 11.7933 2.24 10.1946 2.23829 8.52723Z" fill="#1D1D1D"/>
</svg>
